<?xml version="1.0" encoding="UTF-8"?>
<svg id="Layer_2" data-name="Layer 2" xmlns="http://www.w3.org/2000/svg" viewBox="0 0 84.78 102.75">
  <defs>
    <style>
      .cls-1 {
        fill: #1f1d1d;
      }
    </style>
  </defs>
  <g id="Section_8_RYSE_Quality_" data-name="Section 8 (RYSE Quality)">
    <path class="cls-1" d="m81.87,5.49h-11.64c.04-1.22.06-2.44.06-3.67,0-1.01-.82-1.82-1.82-1.82H16.33c-1.01,0-1.82.82-1.82,1.82,0,1.23.02,2.45.06,3.67H2.92c-1.61,0-2.92,1.31-2.92,2.92,0,9.02,2.45,17.79,6.9,24.68,2.16,3.34,4.68,6.08,7.48,8.13,2.98,2.18,6.12,3.48,9.34,3.85l.02-.16c3.28,6.09,7.19,10.39,11.44,12.66,1.93,1.24,2.09,4.59,2.02,6.49-.12,3.05-.98,6.71-2.38,10.19h-11.61c-1.01,0-1.82.82-1.82,1.82v14.66h-5.2c-1.01,0-1.82.82-1.82,1.82v8.36c0,1.01.82,1.82,1.82,1.82h52.13c1.01,0,1.82-.82,1.82-1.82v-8.36c0-1.01-.82-1.82-1.82-1.82h-4.93v-14.66c0-1.01-.82-1.82-1.82-1.82h-11.6c-3.12-7.58-3.28-14.94-.27-16.74h0c4.21-2.29,8.08-6.57,11.33-12.61l.02.16c3.22-.38,6.37-1.67,9.34-3.85,2.8-2.05,5.32-4.79,7.48-8.13,4.45-6.89,6.9-15.66,6.9-24.68,0-1.61-1.31-2.92-2.92-2.92ZM11.8,29.92c-3.37-5.22-5.42-11.74-5.87-18.6h8.94c.78,9.87,2.76,19.1,5.79,26.87-3.23-1.49-6.33-4.35-8.86-8.27Zm61.17,0c-2.53,3.92-5.63,6.79-8.86,8.27,3.03-7.77,5.01-16.99,5.79-26.87h8.94c-.45,6.86-2.5,13.37-5.87,18.6Z"/>
  </g>
</svg>