<?xml version="1.0" encoding="UTF-8"?>
<svg id="Layer_2" data-name="Layer 2" xmlns="http://www.w3.org/2000/svg" viewBox="0 0 102.75 102.75">
  <defs>
    <style>
      .cls-1 {
        fill: #191919;
      }
    </style>
  </defs>
  <g id="Section_8_RYSE_Quality_" data-name="Section 8 (RYSE Quality)">
    <path class="cls-1" d="m51.37,0C23,0,0,23,0,51.37s23,51.38,51.37,51.38,51.38-23.01,51.38-51.38S79.75,0,51.37,0Zm30.96,38.18l-33.94,40.41c-1.07,1.28-2.65,2.01-4.3,2.03h-.06c-1.64,0-3.2-.71-4.29-1.95l-18.33-20.99c-2.08-2.37-1.83-5.97.54-8.04,2.37-2.08,5.97-1.83,8.04.54l13.97,15.99,29.66-35.32c2.02-2.41,5.61-2.72,8.02-.7,2.41,2.02,2.72,5.61.7,8.02Z"/>
  </g>
</svg>