<?xml version="1.0" encoding="UTF-8"?>
<svg id="Layer_2" data-name="Layer 2" xmlns="http://www.w3.org/2000/svg" viewBox="0 0 102.76 102.75">
  <defs>
    <style>
      .cls-1 {
        fill: #191919;
        fill-rule: evenodd;
      }
    </style>
  </defs>
  <g id="Section_8_RYSE_Quality_" data-name="Section 8 (RYSE Quality)">
    <path class="cls-1" d="m68.29,32.85l-23.02,27.41-10.84-12.41c-1.61-1.83-4.4-2.03-6.24-.42-1.83,1.61-2.03,4.4-.42,6.24l14.23,16.29c.84.96,2.06,1.51,3.33,1.51h.05c1.29-.02,2.51-.59,3.34-1.58l26.35-31.36c1.57-1.87,1.33-4.66-.54-6.23-1.87-1.57-4.66-1.33-6.23.54Zm33.88,25.74c-.99-2.49-2.34-4.62-2.34-7.22s1.35-4.73,2.34-7.22c.78-1.82.73-4.47.16-6.44-.52-1.97-1.77-4.31-3.32-5.51-2.13-1.66-4.36-2.86-5.66-5.09-1.25-2.23-1.2-4.73-1.56-7.38-.26-1.97-1.66-4.26-3.07-5.66-1.45-1.45-3.74-2.86-5.66-3.12-2.7-.36-5.19-.26-7.43-1.56-2.24-1.3-3.43-3.53-5.09-5.66-1.2-1.56-3.53-2.81-5.51-3.33-1.97-.52-4.62-.62-6.44.16-2.49.99-4.62,2.34-7.22,2.34s-4.73-1.35-7.22-2.34c-1.82-.78-4.47-.67-6.44-.16-1.97.52-4.31,1.77-5.51,3.33-1.66,2.13-2.86,4.36-5.09,5.66-2.23,1.3-4.73,1.19-7.38,1.56-1.97.26-4.26,1.66-5.66,3.12-1.45,1.4-2.86,3.69-3.12,5.66-.36,2.65-.26,5.14-1.56,7.38-1.3,2.23-3.53,3.43-5.66,5.09-1.56,1.19-2.8,3.53-3.32,5.51-.52,1.97-.62,4.62.16,6.44.99,2.49,2.34,4.62,2.34,7.22s-1.35,4.73-2.34,7.22c-.78,1.82-.68,4.47-.16,6.44.52,1.97,1.77,4.31,3.32,5.51,2.13,1.66,4.36,2.86,5.66,5.09,1.3,2.23,1.19,4.73,1.56,7.43.26,1.92,1.66,4.21,3.12,5.66,1.4,1.4,3.69,2.8,5.66,3.06,2.65.36,5.14.26,7.38,1.56,2.23,1.3,3.43,3.53,5.09,5.66,1.2,1.56,3.53,2.8,5.51,3.32,1.97.57,4.62.62,6.44-.16,2.49-.99,4.62-2.34,7.22-2.34s4.73,1.35,7.22,2.34c1.82.78,4.47.73,6.44.16,1.97-.52,4.31-1.77,5.51-3.32,1.66-2.13,2.86-4.36,5.09-5.66,2.23-1.3,4.73-1.2,7.43-1.56,1.92-.26,4.21-1.66,5.66-3.06,1.4-1.46,2.81-3.74,3.07-5.66.36-2.7.31-5.19,1.56-7.43,1.3-2.23,3.53-3.43,5.66-5.09,1.56-1.2,2.8-3.53,3.38-5.51.52-1.97.57-4.62-.21-6.44Zm-50.8,29.66c-20.36,0-36.88-16.52-36.88-36.88S31,14.49,51.37,14.49s36.88,16.52,36.88,36.88-16.52,36.88-36.88,36.88Z"/>
  </g>
</svg>