<?xml version="1.0" standalone="no"?>
<!DOCTYPE svg PUBLIC "-//W3C//DTD SVG 20010904//EN"
 "http://www.w3.org/TR/2001/REC-SVG-20010904/DTD/svg10.dtd">
<svg version="1.0" xmlns="http://www.w3.org/2000/svg"
 width="60px" height="60px" viewBox="0 0 300.000000 300.000000"
 preserveAspectRatio="xMidYMid meet">

<g transform="translate(0.000000,300.000000) scale(0.100000,-0.100000)"
fill="#000000" stroke="none">
<path d="M690 2139 c0 -667 1 -701 18 -688 9 8 108 102 220 209 l202 195 0
282 0 283 135 0 135 0 0 210 0 210 -355 0 -355 0 0 -701z"/>
<path d="M1570 2630 l0 -210 135 0 135 0 0 -281 0 -282 148 -141 c81 -77 182
-174 225 -215 l77 -74 0 706 0 707 -360 0 -360 0 0 -210z"/>
<path d="M1095 1585 l-390 -384 285 0 285 -1 100 100 c55 55 104 100 110 100
6 0 55 -45 110 -100 l100 -100 289 0 289 0 -324 318 c-178 174 -356 347 -394
384 l-70 67 -390 -384z"/>
<path d="M110 866 l0 -54 153 -4 c164 -3 187 -10 207 -58 14 -34 -1 -73 -37
-97 -22 -15 -53 -19 -175 -21 l-148 -4 0 -159 0 -159 60 0 59 0 3 103 3 102
50 3 50 3 63 -106 63 -105 70 0 c38 0 69 2 69 5 0 2 -27 49 -60 103 -33 55
-60 104 -60 110 0 6 13 18 28 27 100 59 109 233 17 314 -49 43 -91 51 -262 51
l-153 0 0 -54z"/>
<path d="M803 913 c2 -5 48 -83 101 -175 l96 -167 0 -130 0 -131 85 0 85 0 0
131 0 130 96 167 c53 92 98 170 101 175 2 4 -32 7 -76 7 l-79 0 -53 -92 c-29
-51 -58 -101 -65 -111 -10 -16 -19 -5 -74 92 l-62 111 -80 0 c-43 0 -77 -3
-75 -7z"/>
<path d="M1739 893 c-75 -39 -102 -81 -96 -153 4 -49 8 -58 46 -91 28 -26 72
-48 134 -70 92 -33 147 -72 147 -104 0 -9 -11 -27 -25 -40 -19 -20 -34 -25
-75 -25 -44 0 -56 5 -81 29 -16 16 -29 38 -29 48 0 16 -9 18 -65 17 -35 0 -67
-3 -70 -6 -14 -13 17 -86 47 -115 50 -47 96 -66 175 -71 125 -8 219 31 249
104 18 44 18 74 -3 125 -20 50 -71 86 -181 125 -43 15 -89 36 -104 46 -58 40
-20 108 60 108 55 0 76 -11 92 -50 12 -29 15 -30 76 -30 62 0 64 1 64 25 0 57
-56 119 -129 144 -19 6 -66 11 -106 11 -58 0 -81 -5 -126 -27z"/>
<path d="M2420 865 l0 -55 219 0 c244 0 236 -3 225 71 l-7 39 -218 0 -219 0 0
-55z"/>
<path d="M2420 625 l0 -55 200 0 200 0 0 55 0 55 -200 0 -200 0 0 -55z"/>
<path d="M2420 365 l0 -55 220 0 c202 0 220 1 221 18 1 9 2 34 3 54 l1 38
-222 0 -223 0 0 -55z"/>
</g>
</svg>
