<?xml version="1.0" encoding="utf-8"?>
<!-- Generator: Adobe Illustrator 27.5.0, SVG Export Plug-In . SVG Version: 6.00 Build 0)  -->
<svg version="1.1" id="Layer_1" xmlns="http://www.w3.org/2000/svg" xmlns:xlink="http://www.w3.org/1999/xlink" x="0px" y="0px"
	 viewBox="0 0 1380 228" style="enable-background:new 0 0 1380 228;" xml:space="preserve">
<style type="text/css">
	.st0{fill:#FFFFFF;}
</style>
<g>
	<polygon class="st0" points="810,87 718.2,87 690,0 661.8,87 570,87 644.2,141 616,228 690,174.2 764,228 735.8,141 	"/>
	<polygon class="st0" points="810,87 718.2,87 690,0 661.8,87 570,87 644.2,141 616,228 690,174.2 764,228 735.8,141 	"/>
	<polygon class="st0" points="525,87 433.2,87 405,0 376.8,87 285,87 359.2,141 331,228 405,174.2 479,228 450.8,141 	"/>
	<polygon class="st0" points="240,87 148.2,87 120,0 91.8,87 0,87 74.2,141 46,228 120,174.2 194,228 165.8,141 	"/>
	<polygon class="st0" points="1095,87 1003.2,87 975,0 946.8,87 855,87 929.2,141 901,228 975,174.2 1049,228 1020.8,141 	"/>
	<polygon class="st0" points="1380,87 1288.2,87 1260,0 1231.8,87 1140,87 1214.2,141 1186,228 1260,174.2 1334,228 1305.8,141 	"/>
</g>
</svg>
