<?xml version="1.0" encoding="utf-8"?>
<!-- Generator: Adobe Illustrator 27.5.0, SVG Export Plug-In . SVG Version: 6.00 Build 0)  -->
<svg version="1.1" id="Icon" xmlns="http://www.w3.org/2000/svg" xmlns:xlink="http://www.w3.org/1999/xlink" x="0px" y="0px"
	 viewBox="0 0 500 322" style="enable-background:new 0 0 500 322;" xml:space="preserve">
<style type="text/css">
	.st0{fill-rule:evenodd;clip-rule:evenodd;fill:#FFFFFF;}
</style>
<g>
	<path class="st0" d="M252.5,304.7c0,2.5-0.5,4.7-1.1,5.6c1.2,2.4,3.8,5.8,2.3,9.4c0,0.1,0,0.3,0,0.4c1.3,0.1,1.4-0.5,2.3,1.1
		c-1.5,0.2-3,0.5-4.5,0.8c-2.4-4.3-15.8-3-17.4-7.5c-0.9-0.6-4.3-9.9-4.5-11.7c0-0.5,0-1,0-1.5c-3.4-2.5-14.4-16.1-13.2-17.7
		c-1.5-1.1-3-2.3-4.5-3.4c-0.8-1.4-1.5-2.8-2.3-4.1c-9.6-5.5-14.7,4.9-18.9,7.9c-7.3-2.1-17.5-11.7-17.7-19.6c0.2-0.3-2.5-2-1.1-3
		c-4.4-4.2-12.2-8.7-12.8-13.6c-6.2-0.5-12.3-1-18.5-1.5c-0.3,1.9-0.5,3.8-0.8,5.7c-10.3-1.1-20.6-2.3-30.9-3.4
		c-3.2-3-18.5-12.8-21.9-13.2c-0.6-0.4-1.3-0.8-1.9-1.1c-0.5-0.4-1-0.8-1.5-1.1c-0.4-0.1-0.8-0.2-1.1-0.4c-0.5-0.5-1-1-1.5-1.5
		c-1.3-1.6-9.2-2.8-7.9-5.6c-8-1.3-16.1-2.5-24.2-3.8c-0.1-6.9-1.5-12.9-5.7-16.6c-1.1-0.3-2.3-0.5-3.4-0.8c-1.6-1.8-1-3.3-1.9-3.8
		c-0.7-0.9-2.4-0.6-3.4-1.1c-2.8-1.5-3.8-4.6-5.7-7.2c-4.2,0.8-6.3-2.3-10.2-4.1c0-3.1,2.3-7.8,0.8-9.4c-1.6,0-8.3-16.6-8.3-16.6
		c-0.2-2.6,2.6-2.8,1.5-5.6c0,0-4-3.8-4.5-4.9c0.1-2.3,0.3-4.5,0.4-6.8c0.4,0,0.8,0,1.1,0c-0.1,0.3-0.3,0.5-0.4,0.8
		c1.1-0.8,0.5-0.3,0.8-1.1c0-1-0.2-2.3-1.1-3.4c-0.3,1.2,0,0.9-1.9,1.5c-0.3-1.9-2.1-1.7-2.6-4.5c0.5-0.2,1.4-1.6,0.8-3
		c-1.4-2.8-1.5-5.8-3.8-9.4c-0.7-1.1,0.7-0.9,0.8-1.1c1.3-6.8,0.7-10-1.9-15.1c0-1.4,0-2.8,0-4.1c1.3-1.7,4.9-4.5,4.9-4.5
		c-0.1-1.1-0.3-2.3-0.4-3.4C6.9,92.3,4.3,87.4,6,82.5C8.8,74.8,11.5,66,17,60.3c0.1-1.4,0.3-2.8,0.4-4.1c1.2-2.2,2.5-4.3,4.2-6
		c0.6-3.1,1.3-6.3,1.9-9.4c1.1,0,2.3,0,3.4,0c-0.3-0.3-0.5-0.5-0.8-0.8c-0.2-1.2-0.8-0.8-1.9-2.6c0-0.4,0-0.8,0-1.1
		c1.7-0.2,1.1,0.3,2.3-1.1c-0.5-0.9-1-1.8-1.5-2.6c0.5-0.5,1-1,1.5-1.5c-1.3-5-0.6-11.8-1.9-15.8c0.6-0.5,1.3-1,1.9-1.5
		c5.9,4,7.8,4.2,14.3,8.3c-1.6,0.7-2.2,1.5-2.6,3.4c1.3,0.6,1.3-0.3,1.9,1.9c-0.5,0.8-1,1.5-1.5,2.3c-1.9-0.4-4.6-0.7-2.6,1.9
		c0,0.3,0,0.5,0,0.8c3-0.9,3.5-1,6-2.3c-0.6-2.4-0.3-4.5,1.1-5.6c0.9-0.1,0.3,0.1,1.5-0.4c-0.5-3,0.3-11.9-2.6-13.2
		c0.1-0.4,0.3-0.8,0.4-1.1c8.6,2.8,17.1,5.5,25.7,8.3c7.2,3.8,16.2,2.8,23.4,6c2.8,0.4,5.5,0.8,8.3,1.1c13.3,4.1,28.2,4.5,44.2,7.9
		c10.4,2.2,24.5,4.8,36.6,4.1c19.2-1,42.4,4,62.3,0.8c6.6-1.1,12.7,1.2,18.5-1.1c0.8-1.4,1.5-2.8,2.3-4.1c1,0.9,0.6,0.5,0.8,1.5
		c1.4,0.5,1.7,3.8,3,5.6c7.7-1.3,8.5,2.1,17-0.4c-0.1,0.3-0.3,0.5-0.4,0.8c0.9,0.7,1.3,2.5,1.1,3.4c0.4,0,0.8,0,1.1,0
		c0.2-1-0.2-0.6,0.8-1.5c2,0.5,5.5,1.7,6,3.4c4.3-1.4,7.6-2.3,14.7-0.8c0,0.1,0,0.3,0,0.4c-0.2,0.3-0.5,0.5-0.8,0.8
		c-0.5,0.5-1,1-1.5,1.5c-4.6,0.1-9.8,8-13.6,13.2c-0.4,0-0.8,0-1.1,0c0.1,0.4,0.3,0.8,0.4,1.1c4.2,0,5.8-0.5,8.3-2.3
		c0.4,0.1,0.8,0.3,1.1,0.4c0,1,0,2,0,3c12.6,0,15.6-11,24.5-13.9c-1.2,2.3-5.1,3.9-3.8,8.3c5.6-3.9,10,5.9,15.1,3
		c1.6-0.9,3.6-3.4,4.9-4.1c1.9-1.1,5.1-0.7,6-2.6c0.3,0.1,0.5,0.3,0.8,0.4c0,2-0.3,3.6,0.8,3c0.3,0.4,0.5,0.8,0.8,1.1
		c2.1-0.1,4.1-0.5,4.9-1.5c0.8,0.7,3.7,3.2,3.4,4.1c-0.3,0.3-0.5,0.5-0.8,0.8c-2-1.1-2.7-1-4.5,1.5c-2.5-1.4-3.6-1.1-6.4-1.9
		c-0.7,2.9-6.5,5.2-7.9,8.3c-0.2-0.1-0.5-0.3-0.8-0.4c0.3-0.8,0.5-1.5,0.8-2.3c-0.2,0.1-0.5,0.3-0.8,0.4c-1.6,0.2-0.6,0.1-1.9,1.1
		c-0.5-0.4-1-0.8-1.5-1.1c-0.5,6.4-4.4,7.9-5.7,16.9c0.4,0,0.8,0,1.1,0c0.8-1.8,3.4-7.2,5.7-7.9c0.1-0.3,0.3-0.5,0.4-0.8
		c-0.7,9-7.5,21.8-1.5,30.1c0,1.1,0,2.3,0,3.4c0,4.9,1.4,6.1,4.5,8.7c10.6-3.1,8.8-19.2,3.4-27.9c0.5-4.4,1-8.8,1.5-13.2
		c2.8-0.4,1.7-1.7,3.8-3.4c0.1,0,0.3,0,0.4,0c0.1,1,0.3,2,0.4,3c0.6,0,1.3,0,1.9,0c0-1.6,0-3.3,0-4.9c1.2-1,1.6-0.5,2.6-2.3
		c-1-0.2-1,0-1.9-1.1c0.9-1.5,1.8-2.5,3.8-3c0.1,0.9,10.5,3.2,12.1,4.1c-1.6,3.5,0.7,3.1,1.5,5.6c1.4,4.3-2.8,10-3.8,11.7
		c0.7,0.5,0.6,0,0.4,1.5c0.5,0.1,1,0.3,1.5,0.4c1.5-2.4,4.1-6.3,7.5-6.4c0.3,3.5,5,7.8,6,15.1c-1.1,0.4-2.3,0.8-3.4,1.1
		c-0.6,5.4-2.6,9.4-3,12.8c2.7,0.8,5.2,1.5,7.2,2.6c0.3-0.8,6.2-4.2,7.9-4.5c4.6-0.8,20.8-20.6,23-21.1c-1.3-3.6-2.2-3.7-3.8-6.4
		c4.5-1.7,9.4-2.3,14-4.1c0.3,0.1,0.5,0.3,0.8,0.4c3-2.2,5.4-4.6,9.4-5.6c-1.4-3.3-0.3-3.4-1.5-7.2c-1.7,0.5-3.2,0.1-2.6-0.8
		c-0.3,0.1-0.5,0.3-0.8,0.4c0.4-2.5,2.4-3.8,3.8-4.9c0.9-0.7-0.3-2.3,0.4-3.8c1.8-4.1,6.9-9.9,13.6-10.2c0,0,8.1-3.2,8.3-3
		c1.6-1.4,8.7-5,10.6-4.1c-0.4-1.6-0.1-2.1,0.4-3.4c2.1-0.9,2.4-1.3,3.8-1.1c0-4.9,0.5-27.1,3.4-30.1c1,0.5,2,1,3,1.5
		c2.8-2.3,3.8-3.5,5.3-4.9c1.2,0.8,2.7,0.2,3.8,1.5c2.9,2,6.3,12,6,13.9c4.3-0.8,7.2,6.3,10.9,7.5c-0.3,5-6.8,6.9-6,9.8
		c-0.8,0-1.5,0-2.3,0c-0.3,1-0.5,2-0.8,3c-0.6,0-1.3,0-1.9,0c-0.2-1.2,0.2-1.1-1.5-1.9c-0.3,0.5-0.5,1-0.8,1.5
		c4.8,3-14.4,19.2-8.7,24.9c0.6,0.5,1.3,1,1.9,1.5c-1.5,0.9-1.8,2.9-0.8,4.1c1.4,2.3,3.6,3.8,4.9,5.6c2.6-0.7,2.8-0.2,4.5-1.5
		c-0.1-0.6-0.3-1.3-0.4-1.9c-0.5-0.6-1-1.3-1.5-1.9c0-0.3,0-0.5,0-0.8c0.1,0,0.3,0,0.4,0c1.4,0.8,2.8,1.5,4.2,2.3
		c-0.5,1.3-0.6,1.3-0.8,2.3c-1.9,0.9-7.6,4.7-8.3,6.8c-1.9-0.5-1.3-0.8-2.6-1.5c-0.7,2-0.9,4-2.3,5.3c-0.5,0.1-22.9,11.4-18.1,20
		c1,0.1,2,0.2,3,0.4c-0.4,4.7-1.6,16.6-5.3,19.6c0-1.1,0-2.3,0-3.4c-2.1,0.1-4.2-0.7-5.7-1.5c0.3,1.9,0.2,5.5,2.3,4.9
		c0.7,1.6,1.8,1.6,3.4,2.3c0.4,6.3,0.2,15.9-3.4,18.1c0-3.7,0.6-3.5,1.1-7.2c-2.6,0-2.1-0.2-2.6-1.1c-1.4-1.2-1.5-5-4.5-4.1
		c0.8-3.6-1.4-2.9-2.3-5.6c1-0.5,0.5-3.6,1.1-5.6c-0.5,0-1,0-1.5,0c-0.6,2.1-2.1,4.8-2.6,5.6c1,1.3,3.1,8.2,4.2,7.9
		c0.5,0.5,1,1,1.5,1.5c-0.9,0.7-0.2,0.2-1.1,0.4c-0.4,0.4-0.8,0.8-1.1,1.1c0.8,0.8,0.5,0.7,1.9,1.1c0.5,0.5,1,1,1.5,1.5
		c0,0.8,0,1.5,0,2.3c-0.6,0-1.3,0-1.9,0c-0.2-0.3-0.9-1.3-1.9,0.4c0.2-0.1,0.5-0.2,0.8-0.4c0.6,1.3,2.8,2.2,3.8,3.4
		c-0.6,0.4-1.3,0.8-1.9,1.1c0,0.4,0,0.8,0,1.1c1.7,0.2,1.8,0.5,2.6,2.3c-1.7-0.5-2.3-1.2-3.4,0.8c1,0.2,0.2-0.4,1.1,0.4
		c2-0.1,4-0.3,6-0.4c0.8,1.1,1.5,2.3,2.3,3.4c-1.4,0.9-0.1,3.3,0.8,4.9c-4.4,0.4-2.9,2.2-7.5,1.5c0.1,1.3,0.3,2.5,0.4,3.8
		c0.4,0,0.8,0,1.1,0c3.1-2.3,4.4-0.8,6.8-0.8c0.3-0.9,0.5-1.8,0.8-2.6c1.4,0.7,1.6,0.7,1.5,1.9c0.3,0,0.5,0,0.8,0
		c-0.4,2.9-1.1,6.1-3.4,6.4c-0.7,1.4-2.6,0.1-3.8-0.4c-1,2.8-1.7,1.6-2.3,3.8c0.9-0.1,1.8-0.3,2.6-0.4c-0.2,1.4-0.5,2.8-0.8,4.1
		c-1.5,0.1-1.3,0-2.6,0.8c0.1,0.2,0.2,0.5,0.4,0.8c0.3-0.1,0.5-0.3,0.8-0.4c2.6,0.5,2.6-1.7,4.5-2.3c0.3,0.6,0.5,1.3,0.8,1.9
		c-0.9,0.6,0.1,1.4-1.1,1.1c0,0-8.1,5.5-9.8,7.5c-0.2,1.5-0.1,5.9-2.3,7.2c-1.6,1-4.5,0.9-6,2.6c-0.6,3.9-12.5,24.3-18.1,23.7
		c0.7,4.4-2.1,11.8-3.4,16.9c0.5,2.5,1,5,1.5,7.5c-0.3,0.3-4.2,2.7-1.9,4.5c0.2,0.8-0.1,0.6,0.8,1.5c-0.1-2.9,0.2-3.7,1.5-4.5
		c0.1,0,0.3,0,0.4,0c0,8.5,5.9,13.9,11.7,20.7c-0.4,0.1-0.8,0.3-1.1,0.4c-0.9-0.8,0-0.2-1.1-0.4c3.1,5.3,19.2,26.9,8.7,41.8
		c-4.6,0.1-1.9,1.3-5.7,0.8c0.3-0.4,0.5-0.8,0.8-1.1c1-0.2,0.2,0.4,1.1-0.4c0-0.2,0-0.5,0-0.8c-9.1-1.8-12.1-15-15.5-16.6
		c-2.1-1-3.1,0.8-4.2-0.4c-1.9-2.1-1.7-4.5-3.4-4.9c1-1.7,2.3-3.3,0-5.3c-1.3,0.9-0.9,0.4-1.1,1.5c-1.1-0.7-0.4-0.1-0.8-1.1
		c-2.4-1.9,0.3-9.7-1.5-12.4c-2.7-4.1-7-2.6-9.4-5.6c-1.9-2.3-1.2-2.7-3.8-5.3c-2.1,0.1-4.3,0.3-6.4,0.4c0.2,1,0.9,3.1-0.8,2.3
		c-0.2,1.6-5.7,3.6-6.8,3c-1-0.2-5.3-4.7-5.7-4.5c-6.3-0.7-8.6-0.8-15.8-0.4c-0.1,2.7-0.2,1.6-1.5,2.6c-1.4,0.1-2.8,0.3-4.2,0.4
		c-1.4-1.2-0.9-1.7-3-2.6c0.1,0.2,0.2,0.5,0.4,0.8c-1.6,0.9-0.7,1.4-1.9,2.3c-2.8,0.1-5.5,0.3-8.3,0.4c-1.3,0.8-2.9,3.3-4.5,3.4
		c-2.3,0.7-5.9-0.8-6.4-1.9c-1.6,0.6-3.3,1.3-4.9,1.9c0.3,0.4,0.5,0.8,0.8,1.1c0.9,0.6,0.3,0.4,1.1,1.5c1.5,0,3,0,4.5,0
		c0,0,0.2-2.4,0.8-1.1c0.5,0,1,0,1.5,0c0,0.6,0,1.3,0,1.9c1.8-0.3,3.5-0.5,5.3-0.8c0.4,0.4,0.8,0.8,1.1,1.1
		c-0.4,1.1-0.3,0.5-0.4,1.5c-2.5,0.2-2.3,0.5-3.4,1.9c0.5,1.2-0.1,0.9,0.8,1.5c1,1.3,3.6,1.6,5.3,3.4c-0.1,0.2-0.3,0.5-0.4,0.8
		c-0.6,0.8-1.3,1.5-1.9,2.3c-0.1,0-0.3,0-0.4,0c-0.6-0.7-9.1-6.8-9.1-6.8c-0.7-0.9-0.2-0.4-1.9-0.8c0,0.3,0.2,1.4-0.4,0.8
		c0.4,1.1,0.3,0.5,0.4,1.5c1.8,0.2,1.7-0.3,2.6,1.9c0.1,0.8,0.3,1.5,0.4,2.3l-7.2,1.5c-1,0.4-1,1-1.1,1.5c-2.7-0.5-3.4-1.3-4.5-2.3
		c0.2-1.8,0.3-6.1-0.8-7.2c-0.4-1.1-1.7-1-2.6-1.5c0.8,2.1,2.8,4,1.9,5.6c-0.9-1.3-4.4-1.5-5.3-3c-1.4,0.6-3.1,1.6-3,3.8
		c-5.6,0.1-9.9,0-11.7-1.9c-1.5,1.2-14.2,5.3-15.5,5.6c0.8-1.4,0.6-0.7,0.8-2.3c-0.4-0.6-0.8-1.3-1.1-1.9c-0.4,0-0.8,0-1.1,0
		c-1.3,11.5-8.7,12.9-16.6,13.9c0,0.1,0,0.3,0,0.4c0.6,1.4,1.3,0.9,0.4,1.9c-1.3,0.2-1.2,0.2-2.6,1.5c-0.7-1.4,0.2-0.6-1.5-1.1
		c0,3.4-1.5,2.3-2.3,4.9c-1.9-0.2-1.3,0-1.9,0.4c-0.5,0.6-0.5,1.7-0.4,3c-0.7,0-2,0-2.6,1.1c0.3,0,0.5,0,0.8,0
		c0.6,0.7-0.1,0.5,1.1,0.4c-0.7,2.1-1,2.2-0.8,4.5c-0.8-0.2-1.5-0.5-2.3-0.8c-0.1,0.4-0.3,0.8-0.4,1.1c0.1,0.3,0.3,0.5,0.4,0.8
		C251.2,304.7,251.8,304.7,252.5,304.7z"/>
	<path class="st0" d="M470.6,2.6c0.1,0.3,0.3,0.5,0.4,0.8C470.8,3.1,470.7,2.9,470.6,2.6z"/>
	<path class="st0" d="M41.1,9c0.3,0.3,0.5,0.5,0.8,0.8C41.6,9.5,41.4,9.3,41.1,9z"/>
	<path class="st0" d="M315.9,41.8c-0.3,0.8-0.5,1.5-0.8,2.3c-0.3-0.3-0.5-0.5-0.8-0.8c0.3-0.1,0.5-0.3,0.8-0.4
		C315.3,42.6,315.6,42.2,315.9,41.8z"/>
	<path class="st0" d="M314,43.7c0.3,0.9-0.1,1.5-0.8,2.6c-0.3-0.1-0.5-0.2-0.8-0.4c0-0.5,0-1,0-1.5C313.5,44.3,313,44.7,314,43.7z"
		/>
	<path class="st0" d="M307.9,44.4c0.3,0,0.5,0,0.8,0C308.4,44.4,308.2,44.4,307.9,44.4z"/>
	<path class="st0" d="M347.5,52.7c0.3,0,0.5,0,0.8,0C348.1,52.7,347.8,52.7,347.5,52.7z"/>
	<path class="st0" d="M475.5,85.9c0.5,1.2,0.5,0.1,0,1.5c-0.3-0.1-0.5-0.3-0.8-0.4C475,86.6,475.2,86.2,475.5,85.9z"/>
	<path class="st0" d="M472.8,87.4c0.4,0.3,0.8,0.5,1.1,0.8c-4,3.7-9.5,6.8-12.8,9.8c-0.1-0.5-0.3-1-0.4-1.5c0.1-0.1,0.3-0.3,0.4-0.4
		c1.4-1.6,2.1-4.1,3.4-4.9C467.5,89.4,471.2,89.7,472.8,87.4z"/>
	<path class="st0" d="M454,140.9c0.1,0.3,0.3,0.5,0.4,0.8C454.2,141.4,454.1,141.1,454,140.9z"/>
	<path class="st0" d="M457.4,154.4c0.1,0.3,0.3,0.5,0.4,0.8C457.6,154.9,457.5,154.7,457.4,154.4z"/>
	<path class="st0" d="M430.6,262.5c0.1,0.3,0.3,0.5,0.4,0.8c-0.3,0-0.5,0-0.8,0C430.3,263,430.4,262.7,430.6,262.5z"/>
</g>
</svg>
