<?xml version="1.0" encoding="utf-8"?>
<!-- Generator: Adobe Illustrator 27.5.0, SVG Export Plug-In . SVG Version: 6.00 Build 0)  -->
<svg version="1.1" id="Layer_2_00000127010934793847279120000004407813080388656555_"
	 xmlns="http://www.w3.org/2000/svg" xmlns:xlink="http://www.w3.org/1999/xlink" x="0px" y="0px" viewBox="0 0 102.8 102.8"
	 style="enable-background:new 0 0 102.8 102.8;" xml:space="preserve">
<style type="text/css">
	.st0{fill-rule:evenodd;clip-rule:evenodd;fill:#FFFFFF;}
</style>
<g id="Section_8_RYSE_Quality_">
	<path class="st0" d="M68.3,32.8l-23,27.4L34.4,47.8c-1.6-1.8-4.4-2-6.2-0.4c-1.8,1.6-2,4.4-0.4,6.2L42,70c0.8,1,2.1,1.5,3.3,1.5h0
		c1.3,0,2.5-0.6,3.3-1.6l26.3-31.4c1.6-1.9,1.3-4.7-0.5-6.2S69.9,31,68.3,32.8L68.3,32.8z M102.2,58.6c-1-2.5-2.3-4.6-2.3-7.2
		s1.3-4.7,2.3-7.2c0.8-1.8,0.7-4.5,0.2-6.4c-0.5-2-1.8-4.3-3.3-5.5c-2.1-1.7-4.4-2.9-5.7-5.1c-1.2-2.2-1.2-4.7-1.6-7.4
		c-0.3-2-1.7-4.3-3.1-5.7c-1.4-1.4-3.7-2.9-5.7-3.1c-2.7-0.4-5.2-0.3-7.4-1.6s-3.4-3.5-5.1-5.7C69.3,2.2,67,0.9,65,0.4
		c-2-0.5-4.6-0.6-6.4,0.2c-2.5,1-4.6,2.3-7.2,2.3s-4.7-1.4-7.2-2.3c-1.8-0.8-4.5-0.7-6.4-0.2c-2,0.5-4.3,1.8-5.5,3.3
		c-1.7,2.1-2.9,4.4-5.1,5.7s-4.7,1.2-7.4,1.6c-2,0.3-4.3,1.7-5.7,3.1c-1.4,1.4-2.9,3.7-3.1,5.7c-0.4,2.6-0.3,5.1-1.6,7.4
		c-1.3,2.2-3.5,3.4-5.7,5.1c-1.6,1.2-2.8,3.5-3.3,5.5c-0.5,2-0.6,4.6,0.2,6.4c1,2.5,2.3,4.6,2.3,7.2s-1.4,4.7-2.3,7.2
		c-0.8,1.8-0.7,4.5-0.2,6.4c0.5,2,1.8,4.3,3.3,5.5c2.1,1.7,4.4,2.9,5.7,5.1s1.2,4.7,1.6,7.4c0.3,1.9,1.7,4.2,3.1,5.7
		c1.4,1.4,3.7,2.8,5.7,3.1c2.6,0.4,5.1,0.3,7.4,1.6c2.2,1.3,3.4,3.5,5.1,5.7c1.2,1.6,3.5,2.8,5.5,3.3c2,0.6,4.6,0.6,6.4-0.2
		c2.5-1,4.6-2.3,7.2-2.3s4.7,1.3,7.2,2.3c1.8,0.8,4.5,0.7,6.4,0.2c2-0.5,4.3-1.8,5.5-3.3c1.7-2.1,2.9-4.4,5.1-5.7
		c2.2-1.3,4.7-1.2,7.4-1.6c1.9-0.3,4.2-1.7,5.7-3.1c1.4-1.5,2.8-3.7,3.1-5.7c0.4-2.7,0.3-5.2,1.6-7.4c1.3-2.2,3.5-3.4,5.7-5.1
		c1.6-1.2,2.8-3.5,3.4-5.5C102.9,63.1,103,60.4,102.2,58.6L102.2,58.6z M51.4,88.2c-20.4,0-36.9-16.5-36.9-36.9S31,14.5,51.4,14.5
		S88.2,31,88.2,51.4S71.7,88.2,51.4,88.2z"/>
</g>
</svg>
